<svg version="1.1" id="Layer_1" xmlns="http://www.w3.org/2000/svg" xmlns:xlink="http://www.w3.org/1999/xlink" x="0px" y="0px"
	 width="100%" viewBox="0 0 500 500" enable-background="new 0 0 500 500" xml:space="preserve">
<path fill="#FFFFFF" opacity="1.000000" stroke="none" 
	d="
M501.000000,190.000000 
	C501.000000,293.999969 501.000000,397.499969 501.000000,500.999939 
	C334.333405,500.999969 167.666794,500.999969 1.000145,501.000000 
	C1.000097,334.333435 1.000097,167.666870 1.000048,1.000234 
	C167.666519,1.000156 334.333038,1.000156 500.999786,1.000078 
	C501.000000,63.833332 501.000000,126.666664 501.000000,190.000000 
M110.601540,38.894501 
	C92.508484,19.583725 60.896675,19.842056 42.680298,39.801266 
	C37.405136,45.581123 31.630779,50.904099 26.112938,56.463982 
	C6.201299,76.527351 6.177747,104.372375 26.114679,124.336380 
	C47.193573,145.443909 68.271706,166.553085 89.503998,187.505646 
	C92.808037,190.766144 94.305382,193.970352 94.291451,198.759216 
	C94.111076,260.757935 94.151726,322.757416 94.208038,384.756622 
	C94.212868,390.078430 94.494476,395.423584 95.040039,400.717468 
	C98.806168,437.261871 132.647568,467.958313 169.398911,468.004425 
	C245.397598,468.099762 321.396606,467.992889 397.395172,468.131714 
	C414.292938,468.162567 429.415588,463.328705 442.777649,453.135193 
	C460.758575,439.418091 472.431824,421.801331 474.146240,398.812653 
	C475.024170,387.040222 474.841797,375.174286 474.816742,363.351288 
	C474.644714,282.188538 474.719604,201.023102 474.018188,119.864548 
	C473.664703,78.964447 440.011536,45.971867 398.924713,44.620865 
	C391.911957,44.390274 390.004303,46.216137 389.997192,53.297146 
	C389.980103,70.296921 389.991577,87.296738 389.991577,104.296532 
	C389.991577,105.876968 389.991608,107.457405 389.991608,108.997803 
	C388.755768,109.079155 388.257446,109.140640 387.759155,109.140694 
	C319.926636,109.147285 252.094070,109.175446 184.261871,109.032394 
	C182.112473,109.027855 179.451431,107.778404 177.896927,106.235031 
	C155.544464,84.042755 133.341202,61.700195 110.601540,38.894501 
z"/>
<path fill="#333536" opacity="1.000000" stroke="none" 
	d="
M110.851822,39.144119 
	C133.341202,61.700195 155.544464,84.042755 177.896927,106.235031 
	C179.451431,107.778404 182.112473,109.027855 184.261871,109.032394 
	C252.094070,109.175446 319.926636,109.147285 387.759155,109.140694 
	C388.257446,109.140640 388.755768,109.079155 389.991608,108.997803 
	C389.991608,107.457405 389.991577,105.876968 389.991577,104.296532 
	C389.991577,87.296738 389.980103,70.296921 389.997192,53.297146 
	C390.004303,46.216137 391.911957,44.390274 398.924713,44.620865 
	C440.011536,45.971867 473.664703,78.964447 474.018188,119.864548 
	C474.719604,201.023102 474.644714,282.188538 474.816742,363.351288 
	C474.841797,375.174286 475.024170,387.040222 474.146240,398.812653 
	C472.431824,421.801331 460.758575,439.418091 442.777649,453.135193 
	C429.415588,463.328705 414.292938,468.162567 397.395172,468.131714 
	C321.396606,467.992889 245.397598,468.099762 169.398911,468.004425 
	C132.647568,467.958313 98.806168,437.261871 95.040039,400.717468 
	C94.494476,395.423584 94.212868,390.078430 94.208038,384.756622 
	C94.151726,322.757416 94.111076,260.757935 94.291451,198.759216 
	C94.305382,193.970352 92.808037,190.766144 89.503998,187.505646 
	C68.271706,166.553085 47.193573,145.443909 26.114679,124.336380 
	C6.177747,104.372375 6.201299,76.527351 26.112938,56.463982 
	C31.630779,50.904099 37.405136,45.581123 42.680298,39.801266 
	C60.896675,19.842056 92.508484,19.583725 110.851822,39.144119 
M226.588028,284.355499 
	C208.849106,279.306793 191.095093,274.309723 173.391220,269.141052 
	C171.290497,268.527710 169.105560,267.336182 167.564499,265.804260 
	C148.304581,246.658447 129.158844,227.397797 109.972588,208.177795 
	C108.970673,207.174149 107.867935,206.271133 106.135048,204.712112 
	C106.135048,206.670425 106.135048,207.763474 106.135056,208.856522 
	C106.135468,268.670013 106.133865,328.483490 106.144989,388.296997 
	C106.145355,390.294617 106.211380,392.296753 106.352821,394.289215 
	C108.792976,428.660339 135.438156,455.797089 169.762070,456.086792 
	C245.220322,456.723663 320.688782,456.213470 396.152863,456.060181 
	C418.829712,456.014099 436.730896,446.215973 450.314728,428.314178 
	C460.614258,414.740723 462.819183,399.105591 462.146729,382.552612 
	C460.798950,349.376404 432.415070,321.017822 399.166870,320.077423 
	C391.123352,319.849945 389.992676,318.701202 389.992523,310.718933 
	C389.991241,249.405930 389.991821,188.092926 389.991821,126.779930 
	C389.991821,124.992569 389.991821,123.205215 389.991821,121.276588 
	C324.224701,121.276588 258.885437,121.276588 192.894547,121.276588 
	C193.966400,122.413696 194.597015,123.117836 195.264206,123.785416 
	C214.108658,142.640610 233.006622,161.442947 251.730545,180.417023 
	C253.698044,182.410812 255.189026,185.255142 255.978455,187.972870 
	C264.783722,218.286667 273.407440,248.653244 282.068024,279.763275 
	C282.981598,282.770477 283.905823,285.774506 284.805725,288.785767 
	C285.717438,291.836365 287.042480,295.479065 283.768768,297.367340 
	C281.567291,298.637146 278.067200,298.763062 275.488983,298.091705 
	C259.326385,293.883209 243.259567,289.306915 226.588028,284.355499 
M452.184113,87.371201 
	C441.899719,71.033707 421.017609,56.785740 402.165894,57.460873 
	C402.165894,140.914383 402.165894,224.369980 402.165894,308.129059 
	C428.217407,310.377441 447.807068,323.274750 462.821899,345.417328 
	C462.905273,343.688263 462.959259,343.101318 462.958252,342.514465 
	C462.831696,269.682709 462.720459,196.850876 462.552582,124.019196 
	C462.522858,111.126198 459.761780,98.922836 452.184113,87.371201 
M68.668739,138.168671 
	C66.568649,139.776794 64.468552,141.384903 62.438763,142.939178 
	C100.181282,180.497406 136.854065,216.991135 173.088074,253.048203 
	C195.236832,231.057510 217.763794,208.691315 239.822266,186.790268 
	C203.351517,150.361389 166.740982,113.792870 129.787476,76.881790 
	C109.845818,96.878853 89.507568,117.273605 68.668739,138.168671 
M84.522972,37.734230 
	C73.802696,35.674332 63.802917,37.290344 55.634724,44.834850 
	C47.338242,52.497845 39.194118,60.394855 31.657887,68.794640 
	C21.932919,79.633980 20.225042,96.628998 28.738550,108.073219 
	C36.100586,117.969589 45.416435,126.412491 53.268112,134.852402 
	C76.338310,111.783073 98.759178,89.363060 121.423553,66.699547 
	C114.987671,60.336018 108.499367,53.106007 101.127380,46.930958 
	C96.558701,43.104057 90.648308,40.878929 84.522972,37.734230 
M208.683426,266.892639 
	C217.473953,269.350647 226.225174,271.969910 235.088043,274.131317 
	C236.871994,274.566376 239.665573,273.891876 240.992050,272.654907 
	C247.192627,266.872498 252.925812,260.591034 259.078064,254.753525 
	C261.379211,252.570145 261.600006,250.571304 260.758484,247.754486 
	C257.528870,236.944000 254.476166,226.080612 251.364136,215.235046 
	C249.798401,209.778381 248.247055,204.317596 246.821930,199.323776 
	C226.306015,219.614243 206.001083,239.696060 185.336563,260.133514 
	C192.996399,262.354218 200.449722,264.515045 208.683426,266.892639 
z"/>
<path fill="#FFFFFF" opacity="1.000000" stroke="none" 
	d="
M282.080048,279.005554 
	C273.407440,248.653244 264.783722,218.286667 255.978455,187.972870 
	C255.189026,185.255142 253.698044,182.410812 251.730545,180.417023 
	C233.006622,161.442947 214.108658,142.640610 195.264206,123.785416 
	C194.597015,123.117836 193.966400,122.413696 192.894547,121.276588 
	C258.885437,121.276588 324.224701,121.276588 389.991821,121.276588 
	C389.991821,123.205215 389.991821,124.992569 389.991821,126.779930 
	C389.991821,188.092926 389.991241,249.405930 389.992523,310.718933 
	C389.992676,318.701202 391.123352,319.849945 399.166870,320.077423 
	C432.415070,321.017822 460.798950,349.376404 462.146729,382.552612 
	C462.819183,399.105591 460.614258,414.740723 450.314728,428.314178 
	C436.730896,446.215973 418.829712,456.014099 396.152863,456.060181 
	C320.688782,456.213470 245.220322,456.723663 169.762070,456.086792 
	C135.438156,455.797089 108.792976,428.660339 106.352821,394.289215 
	C106.211380,392.296753 106.145355,390.294617 106.144989,388.296997 
	C106.133865,328.483490 106.135468,268.670013 106.135056,208.856522 
	C106.135048,207.763474 106.135048,206.670425 106.135048,204.712112 
	C107.867935,206.271133 108.970673,207.174149 109.972588,208.177795 
	C129.158844,227.397797 148.304581,246.658447 167.564499,265.804260 
	C169.105560,267.336182 171.290497,268.527710 173.391220,269.141052 
	C191.095093,274.309723 208.849106,279.306793 226.729126,284.974426 
	C226.360535,290.820587 225.102417,296.109772 225.528641,301.259552 
	C226.074326,307.852478 231.049118,311.899811 237.934067,311.931274 
	C268.923248,312.072845 299.913574,312.044647 330.903046,311.942413 
	C335.827789,311.926178 339.991211,309.890015 342.339417,305.211945 
	C349.185089,291.574127 341.681091,279.246857 326.554932,279.200562 
	C311.729919,279.155212 296.904999,279.072113 282.080048,279.005554 
M350.177490,344.085571 
	C347.677521,344.085083 345.177551,344.084167 342.677582,344.084198 
	C301.678223,344.084381 260.678864,344.072021 219.679489,344.095459 
	C211.433304,344.100159 206.713409,347.377350 205.556870,354.550964 
	C204.931625,358.429169 204.913361,362.583008 205.569550,366.451660 
	C206.794601,373.674377 211.865662,376.784515 221.412247,376.791046 
	C260.078308,376.817566 298.744354,376.802551 337.410431,376.801849 
	C341.743683,376.801788 346.084625,376.960175 350.408600,376.758118 
	C359.568665,376.330109 363.950256,371.636169 364.003387,362.477692 
	C364.012115,360.977753 364.016541,359.477600 364.002594,357.977783 
	C363.920990,349.209625 359.952087,344.945160 350.177490,344.085571 
z"/>
<path fill="#FEFEFE" opacity="1.000000" stroke="none" 
	d="
M452.396790,87.666916 
	C459.761780,98.922836 462.522858,111.126198 462.552582,124.019196 
	C462.720459,196.850876 462.831696,269.682709 462.958252,342.514465 
	C462.959259,343.101318 462.905273,343.688263 462.821899,345.417328 
	C447.807068,323.274750 428.217407,310.377441 402.165894,308.129059 
	C402.165894,224.369980 402.165894,140.914383 402.165894,57.460873 
	C421.017609,56.785740 441.899719,71.033707 452.396790,87.666916 
z"/>
<path fill="#F7991E" opacity="1.000000" stroke="none" 
	d="
M68.919029,137.918518 
	C89.507568,117.273605 109.845818,96.878853 129.787476,76.881790 
	C166.740982,113.792870 203.351517,150.361389 239.822266,186.790268 
	C217.763794,208.691315 195.236832,231.057510 173.088074,253.048203 
	C136.854065,216.991135 100.181282,180.497406 62.438763,142.939178 
	C64.468552,141.384903 66.568649,139.776794 68.919029,137.918518 
M154.382141,176.117844 
	C160.979935,182.714066 167.580658,189.307343 174.174103,195.907913 
	C176.957291,198.694122 179.987411,199.935165 183.387436,197.042038 
	C186.137878,194.701645 185.761765,190.853516 182.602142,187.347656 
	C182.045303,186.729782 181.429199,186.165268 180.840134,185.576447 
	C162.576828,167.320404 144.322433,149.055435 126.032501,130.826111 
	C124.631813,129.430069 123.119301,127.530800 121.409943,127.215820 
	C119.277626,126.822906 115.903122,127.074890 114.860741,128.429886 
	C113.600754,130.067764 113.928688,133.181061 114.164711,135.597687 
	C114.266800,136.642929 115.837837,137.564056 116.778099,138.505112 
	C129.142273,150.879852 141.512970,163.248077 154.382141,176.117844 
z"/>
<path fill="#E93180" opacity="1.000000" stroke="none" 
	d="
M84.931580,37.834518 
	C90.648308,40.878929 96.558701,43.104057 101.127380,46.930958 
	C108.499367,53.106007 114.987671,60.336018 121.423553,66.699547 
	C98.759178,89.363060 76.338310,111.783073 53.268112,134.852402 
	C45.416435,126.412491 36.100586,117.969589 28.738550,108.073219 
	C20.225042,96.628998 21.932919,79.633980 31.657887,68.794640 
	C39.194118,60.394855 47.338242,52.497845 55.634724,44.834850 
	C63.802917,37.290344 73.802696,35.674332 84.931580,37.834518 
z"/>
<path fill="#94B0C9" opacity="1.000000" stroke="none" 
	d="
M282.074036,279.384399 
	C296.904999,279.072113 311.729919,279.155212 326.554932,279.200562 
	C341.681091,279.246857 349.185089,291.574127 342.339417,305.211945 
	C339.991211,309.890015 335.827789,311.926178 330.903046,311.942413 
	C299.913574,312.044647 268.923248,312.072845 237.934067,311.931274 
	C231.049118,311.899811 226.074326,307.852478 225.528641,301.259552 
	C225.102417,296.109772 226.360535,290.820587 227.015656,285.222839 
	C243.259567,289.306915 259.326385,293.883209 275.488983,298.091705 
	C278.067200,298.763062 281.567291,298.637146 283.768768,297.367340 
	C287.042480,295.479065 285.717438,291.836365 284.805725,288.785767 
	C283.905823,285.774506 282.981598,282.770477 282.074036,279.384399 
z"/>
<path fill="#FDFDFD" opacity="1.000000" stroke="none" 
	d="
M208.293243,266.784241 
	C200.449722,264.515045 192.996399,262.354218 185.336563,260.133514 
	C206.001083,239.696060 226.306015,219.614243 246.821930,199.323776 
	C248.247055,204.317596 249.798401,209.778381 251.364136,215.235046 
	C254.476166,226.080612 257.528870,236.944000 260.758484,247.754486 
	C261.600006,250.571304 261.379211,252.570145 259.078064,254.753525 
	C252.925812,260.591034 247.192627,266.872498 240.992050,272.654907 
	C239.665573,273.891876 236.871994,274.566376 235.088043,274.131317 
	C226.225174,271.969910 217.473953,269.350647 208.293243,266.784241 
z"/>
<path fill="#95B1CA" opacity="1.000000" stroke="none" 
	d="
M350.631042,344.086914 
	C359.952087,344.945160 363.920990,349.209625 364.002594,357.977783 
	C364.016541,359.477600 364.012115,360.977753 364.003387,362.477692 
	C363.950256,371.636169 359.568665,376.330109 350.408600,376.758118 
	C346.084625,376.960175 341.743683,376.801788 337.410431,376.801849 
	C298.744354,376.802551 260.078308,376.817566 221.412247,376.791046 
	C211.865662,376.784515 206.794601,373.674377 205.569550,366.451660 
	C204.913361,362.583008 204.931625,358.429169 205.556870,354.550964 
	C206.713409,347.377350 211.433304,344.100159 219.679489,344.095459 
	C260.678864,344.072021 301.678223,344.084381 342.677582,344.084198 
	C345.177551,344.084167 347.677521,344.085083 350.631042,344.086914 
z"/>
<path fill="#343332" opacity="1.000000" stroke="none" 
	d="
M154.132080,175.867889 
	C141.512970,163.248077 129.142273,150.879852 116.778099,138.505112 
	C115.837837,137.564056 114.266800,136.642929 114.164711,135.597687 
	C113.928688,133.181061 113.600754,130.067764 114.860741,128.429886 
	C115.903122,127.074890 119.277626,126.822906 121.409943,127.215820 
	C123.119301,127.530800 124.631813,129.430069 126.032501,130.826111 
	C144.322433,149.055435 162.576828,167.320404 180.840134,185.576447 
	C181.429199,186.165268 182.045303,186.729782 182.602142,187.347656 
	C185.761765,190.853516 186.137878,194.701645 183.387436,197.042038 
	C179.987411,199.935165 176.957291,198.694122 174.174103,195.907913 
	C167.580658,189.307343 160.979935,182.714066 154.132080,175.867889 
z"/>
</svg>